<svg
  aria-hidden="true"
  style="position: absolute; width: 0; height: 0; overflow: hidden;"
  version="1.1"
  xmlns="http://www.w3.org/2000/svg"
  xmlns:xlink="http://www.w3.org/1999/xlink"
>
<defs>
<symbol id="triangle" viewBox="0 0 29 32">
<path
        d="M26.697 14.367c1.245 0.733 1.245 2.534 0 3.266l-23 13.529c-1.263 0.743-2.855-0.168-2.855-1.633v-27.059c0-1.465 1.592-2.376 2.855-1.633l23 13.529z"
      />
</symbol>
<symbol id="slug" viewBox="0 0 41 32">
<path
      
        d="M21.673 12.51l2.674 1.245 3.98-1.184v-2.776c0-4.714-3.98-8.49-8.735-8.49-4.735 0-8.735 3.755-8.735 8.429v12.653c0 1.163-0.939 2.082-2.082 2.082s-2.082-0.918-2.082-2.082v-5.347h-6.694c0 5.367 0 5.429 0 5.429 0 4.837 3.918 8.755 8.755 8.755 4.796 0 8.755-3.857 8.755-8.633v-12.49c0-1.143 0.939-2.082 2.082-2.082s2.082 0.939 2.082 2.082v2.408zM32.49 17.040v5.612c0 1.143-0.939 2.061-2.082 2.061s-2.082-0.918-2.082-2.061v-5.51l-3.98 1.184-2.674-1.245v5.469c0 4.796 3.939 8.673 8.755 8.673 4.837 0 8.755-3.918 8.755-8.755 0 0 0-0.061 0-5.429h-6.694z"
      />
</symbol>
<symbol id="heart" viewBox="0 0 37 32">
<path
        d="M18.286 31.938c0.327 0 0.653-0.122 0.898-0.367l12.714-12.245c0.184-0.184 4.673-4.286 4.673-9.184 0-5.98-3.653-9.551-9.755-9.551-3.571 0-6.918 2.816-8.53 4.408-1.612-1.592-4.959-4.408-8.531-4.408-6.102 0-9.755 3.571-9.755 9.551 0 4.898 4.49 9 4.653 9.143l12.735 12.286c0.245 0.245 0.571 0.367 0.898 0.367z"
      />
</symbol>
<symbol id="clock" viewBox="0 0 26 32">
<path
        d="M23.664 2.369h1.614c0.302 0 0.538-0.235 0.538-0.538v-1.076c0-0.303-0.235-0.538-0.538-0.538h-24.74c-0.303 0-0.538 0.235-0.538 0.538v1.076c0 0.303 0.235 0.538 0.538 0.538h1.613c0 6.219 2.975 10.723 6.269 12.908-3.294 2.185-6.269 6.689-6.269 12.907h-1.613c-0.303 0-0.538 0.235-0.538 0.538v1.076c0 0.302 0.235 0.538 0.538 0.538h24.74c0.302 0 0.538-0.235 0.538-0.538v-1.076c0-0.302-0.235-0.538-0.538-0.538h-1.614c0-6.218-2.975-10.723-6.269-12.908 3.294-2.185 6.269-6.689 6.269-12.908zM21.513 2.369c0 2.454-0.555 4.622-1.429 6.454h-14.353c-0.874-1.832-1.429-4-1.429-6.454h17.21zM20.555 22.806h-15.294c1.244-3.244 3.479-5.546 5.714-6.454h3.866c2.235 0.908 4.471 3.21 5.714 6.454z"
      />
</symbol>
<symbol id="ok" viewBox="0 0 39 32">
<path
        d="M38.808 1.331c-0.769-0.785-2.016-0.785-2.785 0l-23.593 24.095-9.069-9.261c-0.769-0.785-2.016-0.785-2.785 0s-0.769 2.059 0 2.844l10.461 10.683c0.769 0.785 2.016 0.785 2.785 0l24.985-25.517c0.769-0.785 0.769-2.059 0-2.844z"
      />
</symbol>
<symbol id="instagram" viewBox="0 0 31 32">
<path
        fill="none"
        stroke="#02897a"
        style="stroke: var(--color1, #02897a)"
        stroke-linejoin="round"
        stroke-linecap="round"
        stroke-miterlimit="4"
        stroke-width="2.56"
        d="M21.76 2.581h-12.8c-3.535 0-6.4 2.865-6.4 6.4v12.8c0 3.535 2.865 6.4 6.4 6.4h12.8c3.535 0 6.4-2.865 6.4-6.4v-12.8c0-3.535-2.865-6.4-6.4-6.4z"
      />
<path
        fill="none"
        stroke="#02897a"
        style="stroke: var(--color1, #02897a)"
        stroke-linejoin="round"
        stroke-linecap="round"
        stroke-miterlimit="4"
        stroke-width="2.56"
        d="M20.48 14.574c0.158 1.065-0.024 2.153-0.52 3.109s-1.281 1.731-2.243 2.215c-0.962 0.484-2.052 0.653-3.115 0.482s-2.045-0.673-2.807-1.435c-0.761-0.761-1.264-1.744-1.435-2.807s-0.003-2.153 0.482-3.115c0.484-0.962 1.259-1.747 2.215-2.243s2.044-0.678 3.109-0.52c1.087 0.161 2.093 0.667 2.869 1.444s1.283 1.783 1.444 2.869z"
      />
<path
        fill="none"
        stroke="#02897a"
        style="stroke: var(--color1, #02897a)"
        stroke-linejoin="round"
        stroke-linecap="round"
        stroke-miterlimit="4"
        stroke-width="2.56"
        d="M22.4 8.341h0.013"
      />
</symbol>
<symbol id="facebook" viewBox="0 0 32 32">
<path
        fill="none"
        stroke="#02897a"
        style="stroke: var(--color1, #02897a)"
        stroke-linejoin="round"
        stroke-linecap="round"
        stroke-miterlimit="4"
        stroke-width="2.6667"
        d="M24 2.667h-4c-1.768 0-3.464 0.702-4.714 1.953s-1.953 2.946-1.953 4.714v4h-4v5.333h4v10.667h5.333v-10.667h4l1.333-5.333h-5.333v-4c0-0.354 0.141-0.693 0.391-0.943s0.589-0.391 0.943-0.391h4v-5.333z"
      />
</symbol>
<symbol id="twitter" viewBox="0 0 38 32">
<path
        fill="none"
        stroke="#02897a"
        style="stroke: var(--color1, #02897a)"
        stroke-linejoin="round"
        stroke-linecap="round"
        stroke-miterlimit="4"
        stroke-width="3.2"
        d="M36.8 1.616c-1.532 1.081-3.229 1.907-5.024 2.448-0.964-1.108-2.244-1.893-3.669-2.25s-2.924-0.267-4.296 0.257c-1.372 0.524-2.55 1.456-3.375 2.671s-1.256 2.654-1.237 4.122v1.6c-2.812 0.073-5.598-0.551-8.11-1.815s-4.673-3.131-6.29-5.433c0 0-6.4 14.4 8 20.8-3.295 2.237-7.221 3.358-11.2 3.2 14.4 8 32 0 32-18.4-0.001-0.446-0.044-0.89-0.128-1.328 1.633-1.61 2.785-3.644 3.328-5.872v0z"
      />
</symbol>
<symbol id="arrow" viewBox="0 0 21 32">
<path
        fill="#fff"
        style="fill: var(--color2, #fff)"
        d="M19.042 17.747l-17.21-17.21c-0.202-0.219-0.471-0.319-0.756-0.319-0.134 0-0.286 0.034-0.403 0.084-0.403 0.168-0.672 0.555-0.672 0.992v25.277c0 0.437 0.269 0.824 0.672 0.992 0.118 0.050 0.269 0.084 0.403 0.084 0.286 0 0.555-0.118 0.756-0.319l5.244-5.244 3.21 7.597c0.235 0.538 0.857 0.807 1.412 0.571l2.975-1.26c0.538-0.235 0.807-0.857 0.571-1.412l-3.378-8h6.42c0.437 0 0.824-0.269 0.992-0.672 0.168-0.387 0.084-0.857-0.235-1.16z"
      />
</symbol>
<symbol id="logo-footer" viewBox="0 0 34 32">
<path
        fill="#02bc6b"
        style="fill: var(--color3, #02bc6b)"
        d="M2.674 29.405c-1.47 0-2.674-1.203-2.674-2.674v-9.347h6.73v-0.010h4.045c1.043-0.027 1.925-0.936 1.925-2.005 0-1.096-0.909-2.005-2.005-2.005l-10.694 0.002v-2.675c0-1.47 1.203-2.674 2.674-2.674h8.021c2.032 0 3.77 0.722 5.187 2.166 1.444 1.417 2.166 3.155 2.166 5.187 0 2.005-0.695 3.743-2.112 5.16s-3.128 2.166-5.133 2.192h-5.454v4.010c0 1.47-1.203 2.674-2.674 2.674z"
      />
<path
        fill="#02897a"
        style="fill: var(--color1, #02897a)"
        d="M21.416 4.913c2.954 2.869 4.442 6.442 4.442 10.504 0 3.994-1.426 7.563-4.334 10.441l-4.129-3.885c1.809-1.79 2.696-3.945 2.696-6.557 0-2.632-0.914-4.783-2.767-6.582l4.091-3.922z"
      />
<path
        fill="#035b81"
        style="fill: var(--color4, #035b81)"
        d="M27.738 0c4.254 4.248 6.395 9.515 6.395 15.559 0 5.95-2.055 11.214-6.239 15.471l-3.985-3.894c3.117-3.171 4.644-7.017 4.644-11.577 0-4.606-1.579-8.449-4.764-11.629l3.948-3.931z"
      />
<path
        fill="#028e37"
        style="fill: var(--color5, #028e37)"
        d="M0 22.743h5.347v3.988c0 1.471-1.203 2.674-2.674 2.674s-2.674-1.203-2.674-2.674v-3.988z"
      />
</symbol>
<symbol id="logo-header" viewBox="0 0 35 32">
<path
        fill="#02bc6b"
        style="fill: var(--color3, #02bc6b)"
        d="M2.71 29.802c-1.49 0-2.71-1.219-2.71-2.71v-9.473h6.821v-0.010h4.099c1.057-0.027 1.951-0.948 1.951-2.032 0-1.111-0.921-2.032-2.032-2.032l-10.839 0.002v-2.711c0-1.49 1.219-2.71 2.71-2.71h8.129c2.059 0 3.821 0.732 5.257 2.195 1.463 1.436 2.195 3.197 2.195 5.257 0 2.032-0.705 3.794-2.141 5.23s-3.17 2.195-5.203 2.222h-5.528v4.065c0 1.49-1.219 2.71-2.71 2.71z"
      />
<path
        fill="#02897a"
        style="fill: var(--color1, #02897a)"
        d="M21.706 4.98c2.994 2.908 4.502 6.529 4.502 10.646 0 4.048-1.445 7.666-4.393 10.583l-4.185-3.937c1.833-1.814 2.733-3.998 2.733-6.645 0-2.667-0.927-4.848-2.804-6.671l4.146-3.975z"
      />
<path
        fill="#035b81"
        style="fill: var(--color4, #035b81)"
        d="M28.113 0c4.312 4.305 6.482 9.643 6.482 15.77 0 6.031-2.082 11.366-6.323 15.68l-4.039-3.946c3.159-3.214 4.707-7.112 4.707-11.734 0-4.669-1.6-8.563-4.828-11.786l4.002-3.984z"
      />
<path
        fill="#028e37"
        style="fill: var(--color5, #028e37)"
        d="M0 23.051h5.419v4.042c0 1.49-1.219 2.71-2.71 2.71s-2.71-1.219-2.71-2.71v-4.042z"
      />
</symbol>
</defs>
</svg>
